<mxfile host="app.diagrams.net" modified="2022-06-28T14:16:12.764Z" agent="5.0 (Windows NT 10.0; Win64; x64) AppleWebKit/537.36 (KHTML, like Gecko) Chrome/102.0.0.0 Safari/537.36" etag="nq-AO0mRjwW3xiRjavB5" version="20.0.3" type="github">
  <diagram id="b7EcPSjdidbDT2Iw0_uo" name="第 1 页">
    <mxGraphModel dx="2062" dy="1122" grid="1" gridSize="10" guides="1" tooltips="1" connect="1" arrows="1" fold="1" page="1" pageScale="1" pageWidth="827" pageHeight="1169" math="0" shadow="0">
      <root>
        <mxCell id="0" />
        <mxCell id="1" parent="0" />
        <mxCell id="_gMm7Ez1-7yfdWrX_Ej3-5" value="用户进程" style="shape=umlLifeline;perimeter=lifelinePerimeter;whiteSpace=wrap;html=1;container=1;collapsible=0;recursiveResize=0;outlineConnect=0;" vertex="1" parent="1">
          <mxGeometry x="70" y="110" width="100" height="460" as="geometry" />
        </mxCell>
        <mxCell id="_gMm7Ez1-7yfdWrX_Ej3-6" value="read" style="rounded=1;dashed=0;point=[];connectable=0;" vertex="1" parent="_gMm7Ez1-7yfdWrX_Ej3-5">
          <mxGeometry x="30" y="60" width="40" height="350" as="geometry" />
        </mxCell>
        <mxCell id="_gMm7Ez1-7yfdWrX_Ej3-14" value="" style="endArrow=open;endFill=1;endSize=12;html=1;rounded=0;" edge="1" parent="_gMm7Ez1-7yfdWrX_Ej3-5">
          <mxGeometry width="160" relative="1" as="geometry">
            <mxPoint x="70" y="100" as="sourcePoint" />
            <mxPoint x="230" y="100" as="targetPoint" />
          </mxGeometry>
        </mxCell>
        <mxCell id="_gMm7Ez1-7yfdWrX_Ej3-16" value="发起io请求" style="edgeLabel;html=1;align=center;verticalAlign=middle;resizable=0;points=[];" vertex="1" connectable="0" parent="_gMm7Ez1-7yfdWrX_Ej3-14">
          <mxGeometry x="-0.2667" relative="1" as="geometry">
            <mxPoint as="offset" />
          </mxGeometry>
        </mxCell>
        <mxCell id="_gMm7Ez1-7yfdWrX_Ej3-8" value="CPU" style="shape=umlLifeline;perimeter=lifelinePerimeter;whiteSpace=wrap;html=1;container=1;collapsible=0;recursiveResize=0;outlineConnect=0;" vertex="1" parent="1">
          <mxGeometry x="270" y="110" width="100" height="440" as="geometry" />
        </mxCell>
        <mxCell id="_gMm7Ez1-7yfdWrX_Ej3-9" value="请求磁盘" style="rounded=1;dashed=0;point=[];connectable=0;" vertex="1" parent="_gMm7Ez1-7yfdWrX_Ej3-8">
          <mxGeometry x="30" y="60" width="40" height="130" as="geometry" />
        </mxCell>
        <mxCell id="_gMm7Ez1-7yfdWrX_Ej3-26" value="发送中断指令给cpu" style="endArrow=classic;html=1;rounded=0;" edge="1" parent="_gMm7Ez1-7yfdWrX_Ej3-8">
          <mxGeometry width="50" height="50" relative="1" as="geometry">
            <mxPoint x="209" y="150" as="sourcePoint" />
            <mxPoint x="79" y="150" as="targetPoint" />
            <Array as="points">
              <mxPoint x="159" y="150" />
              <mxPoint x="130" y="150" />
            </Array>
          </mxGeometry>
        </mxCell>
        <mxCell id="_gMm7Ez1-7yfdWrX_Ej3-29" value="复制数据" style="rounded=1;dashed=0;point=[];connectable=0;" vertex="1" parent="_gMm7Ez1-7yfdWrX_Ej3-8">
          <mxGeometry x="30" y="210" width="40" height="80" as="geometry" />
        </mxCell>
        <mxCell id="_gMm7Ez1-7yfdWrX_Ej3-32" value="复制数据" style="rounded=1;dashed=0;point=[];connectable=0;" vertex="1" parent="_gMm7Ez1-7yfdWrX_Ej3-8">
          <mxGeometry x="30" y="320" width="40" height="80" as="geometry" />
        </mxCell>
        <mxCell id="_gMm7Ez1-7yfdWrX_Ej3-33" value="" style="endArrow=classic;html=1;rounded=0;edgeStyle=orthogonalEdgeStyle;" edge="1" parent="_gMm7Ez1-7yfdWrX_Ej3-8">
          <mxGeometry width="50" height="50" relative="1" as="geometry">
            <mxPoint x="70" y="345" as="sourcePoint" />
            <mxPoint x="70" y="375" as="targetPoint" />
            <Array as="points">
              <mxPoint x="140" y="345" />
              <mxPoint x="140" y="375" />
            </Array>
          </mxGeometry>
        </mxCell>
        <mxCell id="_gMm7Ez1-7yfdWrX_Ej3-34" value="复制内核缓冲&lt;br&gt;到用户缓冲" style="edgeLabel;html=1;align=center;verticalAlign=middle;resizable=0;points=[];" vertex="1" connectable="0" parent="_gMm7Ez1-7yfdWrX_Ej3-33">
          <mxGeometry x="-0.3569" y="-1" relative="1" as="geometry">
            <mxPoint x="25" y="9" as="offset" />
          </mxGeometry>
        </mxCell>
        <mxCell id="_gMm7Ez1-7yfdWrX_Ej3-10" value="磁盘控制器" style="shape=umlLifeline;perimeter=lifelinePerimeter;whiteSpace=wrap;html=1;container=1;collapsible=0;recursiveResize=0;outlineConnect=0;" vertex="1" parent="1">
          <mxGeometry x="460" y="110" width="100" height="450" as="geometry" />
        </mxCell>
        <mxCell id="_gMm7Ez1-7yfdWrX_Ej3-17" value="" style="endArrow=open;endFill=1;endSize=12;html=1;rounded=0;" edge="1" parent="_gMm7Ez1-7yfdWrX_Ej3-10">
          <mxGeometry width="160" relative="1" as="geometry">
            <mxPoint x="-120" y="100" as="sourcePoint" />
            <mxPoint x="30" y="100" as="targetPoint" />
          </mxGeometry>
        </mxCell>
        <mxCell id="_gMm7Ez1-7yfdWrX_Ej3-18" value="通知磁盘" style="edgeLabel;html=1;align=center;verticalAlign=middle;resizable=0;points=[];" vertex="1" connectable="0" parent="_gMm7Ez1-7yfdWrX_Ej3-17">
          <mxGeometry x="-0.2667" relative="1" as="geometry">
            <mxPoint as="offset" />
          </mxGeometry>
        </mxCell>
        <mxCell id="_gMm7Ez1-7yfdWrX_Ej3-19" value="read" style="rounded=1;dashed=0;point=[];connectable=0;" vertex="1" parent="_gMm7Ez1-7yfdWrX_Ej3-10">
          <mxGeometry x="30" y="90" width="40" height="90" as="geometry" />
        </mxCell>
        <mxCell id="_gMm7Ez1-7yfdWrX_Ej3-20" value="" style="endArrow=classic;html=1;rounded=0;edgeStyle=orthogonalEdgeStyle;" edge="1" parent="_gMm7Ez1-7yfdWrX_Ej3-10">
          <mxGeometry width="50" height="50" relative="1" as="geometry">
            <mxPoint x="70" y="100" as="sourcePoint" />
            <mxPoint x="70" y="130" as="targetPoint" />
            <Array as="points">
              <mxPoint x="140" y="100" />
              <mxPoint x="140" y="130" />
            </Array>
          </mxGeometry>
        </mxCell>
        <mxCell id="_gMm7Ez1-7yfdWrX_Ej3-21" value="读取磁盘数据&lt;br&gt;到磁盘缓冲区" style="edgeLabel;html=1;align=center;verticalAlign=middle;resizable=0;points=[];" vertex="1" connectable="0" parent="_gMm7Ez1-7yfdWrX_Ej3-20">
          <mxGeometry x="-0.3569" y="-1" relative="1" as="geometry">
            <mxPoint x="25" y="9" as="offset" />
          </mxGeometry>
        </mxCell>
        <mxCell id="_gMm7Ez1-7yfdWrX_Ej3-30" value="" style="endArrow=classic;html=1;rounded=0;edgeStyle=orthogonalEdgeStyle;" edge="1" parent="1">
          <mxGeometry width="50" height="50" relative="1" as="geometry">
            <mxPoint x="340" y="345" as="sourcePoint" />
            <mxPoint x="340" y="375" as="targetPoint" />
            <Array as="points">
              <mxPoint x="410" y="345" />
              <mxPoint x="410" y="375" />
            </Array>
          </mxGeometry>
        </mxCell>
        <mxCell id="_gMm7Ez1-7yfdWrX_Ej3-31" value="复制磁盘缓冲到内核缓冲" style="edgeLabel;html=1;align=center;verticalAlign=middle;resizable=0;points=[];" vertex="1" connectable="0" parent="_gMm7Ez1-7yfdWrX_Ej3-30">
          <mxGeometry x="-0.3569" y="-1" relative="1" as="geometry">
            <mxPoint x="25" y="9" as="offset" />
          </mxGeometry>
        </mxCell>
        <mxCell id="_gMm7Ez1-7yfdWrX_Ej3-35" value="" style="endArrow=classic;html=1;rounded=0;" edge="1" parent="1">
          <mxGeometry width="50" height="50" relative="1" as="geometry">
            <mxPoint x="300" y="500" as="sourcePoint" />
            <mxPoint x="140" y="500" as="targetPoint" />
            <Array as="points">
              <mxPoint x="210" y="500" />
            </Array>
          </mxGeometry>
        </mxCell>
        <mxCell id="_gMm7Ez1-7yfdWrX_Ej3-36" value="返回数据" style="edgeLabel;html=1;align=center;verticalAlign=middle;resizable=0;points=[];" vertex="1" connectable="0" parent="_gMm7Ez1-7yfdWrX_Ej3-35">
          <mxGeometry x="0.3042" y="4" relative="1" as="geometry">
            <mxPoint as="offset" />
          </mxGeometry>
        </mxCell>
        <mxCell id="_gMm7Ez1-7yfdWrX_Ej3-37" value="用户进程" style="shape=umlLifeline;perimeter=lifelinePerimeter;whiteSpace=wrap;html=1;container=1;collapsible=0;recursiveResize=0;outlineConnect=0;" vertex="1" parent="1">
          <mxGeometry x="780" y="110" width="100" height="460" as="geometry" />
        </mxCell>
        <mxCell id="_gMm7Ez1-7yfdWrX_Ej3-38" value="read" style="rounded=1;dashed=0;point=[];connectable=0;" vertex="1" parent="_gMm7Ez1-7yfdWrX_Ej3-37">
          <mxGeometry x="30" y="60" width="40" height="350" as="geometry" />
        </mxCell>
        <mxCell id="_gMm7Ez1-7yfdWrX_Ej3-39" value="" style="endArrow=open;endFill=1;endSize=12;html=1;rounded=0;" edge="1" parent="_gMm7Ez1-7yfdWrX_Ej3-37">
          <mxGeometry width="160" relative="1" as="geometry">
            <mxPoint x="70" y="100" as="sourcePoint" />
            <mxPoint x="190" y="100" as="targetPoint" />
          </mxGeometry>
        </mxCell>
        <mxCell id="_gMm7Ez1-7yfdWrX_Ej3-40" value="发起io请求" style="edgeLabel;html=1;align=center;verticalAlign=middle;resizable=0;points=[];" vertex="1" connectable="0" parent="_gMm7Ez1-7yfdWrX_Ej3-39">
          <mxGeometry x="-0.2667" relative="1" as="geometry">
            <mxPoint as="offset" />
          </mxGeometry>
        </mxCell>
        <mxCell id="_gMm7Ez1-7yfdWrX_Ej3-41" value="DMA" style="shape=umlLifeline;perimeter=lifelinePerimeter;whiteSpace=wrap;html=1;container=1;collapsible=0;recursiveResize=0;outlineConnect=0;" vertex="1" parent="1">
          <mxGeometry x="1130" y="100" width="100" height="440" as="geometry" />
        </mxCell>
        <mxCell id="_gMm7Ez1-7yfdWrX_Ej3-42" value="请求磁盘" style="rounded=1;dashed=0;point=[];connectable=0;" vertex="1" parent="_gMm7Ez1-7yfdWrX_Ej3-41">
          <mxGeometry x="30" y="60" width="40" height="130" as="geometry" />
        </mxCell>
        <mxCell id="_gMm7Ez1-7yfdWrX_Ej3-44" value="复制数据" style="rounded=1;dashed=0;point=[];connectable=0;" vertex="1" parent="_gMm7Ez1-7yfdWrX_Ej3-41">
          <mxGeometry x="30" y="210" width="40" height="80" as="geometry" />
        </mxCell>
        <mxCell id="_gMm7Ez1-7yfdWrX_Ej3-43" value="t通知DMA" style="endArrow=classic;html=1;rounded=0;" edge="1" parent="_gMm7Ez1-7yfdWrX_Ej3-41">
          <mxGeometry width="50" height="50" relative="1" as="geometry">
            <mxPoint x="207" y="150" as="sourcePoint" />
            <mxPoint x="77" y="150" as="targetPoint" />
            <Array as="points">
              <mxPoint x="188" y="150" />
              <mxPoint x="157" y="150" />
              <mxPoint x="128" y="150" />
            </Array>
          </mxGeometry>
        </mxCell>
        <mxCell id="_gMm7Ez1-7yfdWrX_Ej3-48" value="磁盘控制器" style="shape=umlLifeline;perimeter=lifelinePerimeter;whiteSpace=wrap;html=1;container=1;collapsible=0;recursiveResize=0;outlineConnect=0;" vertex="1" parent="1">
          <mxGeometry x="1320" y="100" width="100" height="450" as="geometry" />
        </mxCell>
        <mxCell id="_gMm7Ez1-7yfdWrX_Ej3-49" value="" style="endArrow=open;endFill=1;endSize=12;html=1;rounded=0;" edge="1" parent="_gMm7Ez1-7yfdWrX_Ej3-48">
          <mxGeometry width="160" relative="1" as="geometry">
            <mxPoint x="-120" y="100" as="sourcePoint" />
            <mxPoint x="30" y="100" as="targetPoint" />
          </mxGeometry>
        </mxCell>
        <mxCell id="_gMm7Ez1-7yfdWrX_Ej3-50" value="通知磁盘" style="edgeLabel;html=1;align=center;verticalAlign=middle;resizable=0;points=[];" vertex="1" connectable="0" parent="_gMm7Ez1-7yfdWrX_Ej3-49">
          <mxGeometry x="-0.2667" relative="1" as="geometry">
            <mxPoint as="offset" />
          </mxGeometry>
        </mxCell>
        <mxCell id="_gMm7Ez1-7yfdWrX_Ej3-51" value="read" style="rounded=1;dashed=0;point=[];connectable=0;" vertex="1" parent="_gMm7Ez1-7yfdWrX_Ej3-48">
          <mxGeometry x="30" y="90" width="40" height="90" as="geometry" />
        </mxCell>
        <mxCell id="_gMm7Ez1-7yfdWrX_Ej3-52" value="" style="endArrow=classic;html=1;rounded=0;edgeStyle=orthogonalEdgeStyle;" edge="1" parent="_gMm7Ez1-7yfdWrX_Ej3-48">
          <mxGeometry width="50" height="50" relative="1" as="geometry">
            <mxPoint x="70" y="100" as="sourcePoint" />
            <mxPoint x="70" y="130" as="targetPoint" />
            <Array as="points">
              <mxPoint x="140" y="100" />
              <mxPoint x="140" y="130" />
            </Array>
          </mxGeometry>
        </mxCell>
        <mxCell id="_gMm7Ez1-7yfdWrX_Ej3-53" value="读取磁盘数据&lt;br&gt;到磁盘缓冲区" style="edgeLabel;html=1;align=center;verticalAlign=middle;resizable=0;points=[];" vertex="1" connectable="0" parent="_gMm7Ez1-7yfdWrX_Ej3-52">
          <mxGeometry x="-0.3569" y="-1" relative="1" as="geometry">
            <mxPoint x="25" y="9" as="offset" />
          </mxGeometry>
        </mxCell>
        <mxCell id="_gMm7Ez1-7yfdWrX_Ej3-54" value="" style="endArrow=classic;html=1;rounded=0;edgeStyle=orthogonalEdgeStyle;" edge="1" parent="1">
          <mxGeometry width="50" height="50" relative="1" as="geometry">
            <mxPoint x="1200" y="335" as="sourcePoint" />
            <mxPoint x="1200" y="365" as="targetPoint" />
            <Array as="points">
              <mxPoint x="1270" y="335" />
              <mxPoint x="1270" y="365" />
            </Array>
          </mxGeometry>
        </mxCell>
        <mxCell id="_gMm7Ez1-7yfdWrX_Ej3-55" value="复制磁盘缓冲到内核缓冲" style="edgeLabel;html=1;align=center;verticalAlign=middle;resizable=0;points=[];" vertex="1" connectable="0" parent="_gMm7Ez1-7yfdWrX_Ej3-54">
          <mxGeometry x="-0.3569" y="-1" relative="1" as="geometry">
            <mxPoint x="25" y="9" as="offset" />
          </mxGeometry>
        </mxCell>
        <mxCell id="_gMm7Ez1-7yfdWrX_Ej3-56" value="" style="endArrow=classic;html=1;rounded=0;" edge="1" parent="1">
          <mxGeometry width="50" height="50" relative="1" as="geometry">
            <mxPoint x="1010" y="250" as="sourcePoint" />
            <mxPoint x="850" y="250" as="targetPoint" />
            <Array as="points">
              <mxPoint x="920" y="250" />
            </Array>
          </mxGeometry>
        </mxCell>
        <mxCell id="_gMm7Ez1-7yfdWrX_Ej3-57" value="响应" style="edgeLabel;html=1;align=center;verticalAlign=middle;resizable=0;points=[];" vertex="1" connectable="0" parent="_gMm7Ez1-7yfdWrX_Ej3-56">
          <mxGeometry x="0.3042" y="4" relative="1" as="geometry">
            <mxPoint as="offset" />
          </mxGeometry>
        </mxCell>
        <mxCell id="_gMm7Ez1-7yfdWrX_Ej3-59" value="CPU" style="shape=umlLifeline;perimeter=lifelinePerimeter;whiteSpace=wrap;html=1;container=1;collapsible=0;recursiveResize=0;outlineConnect=0;" vertex="1" parent="1">
          <mxGeometry x="940" y="105" width="100" height="460" as="geometry" />
        </mxCell>
        <mxCell id="_gMm7Ez1-7yfdWrX_Ej3-60" value="发起io" style="rounded=1;dashed=0;point=[];connectable=0;" vertex="1" parent="_gMm7Ez1-7yfdWrX_Ej3-59">
          <mxGeometry x="30" y="60" width="40" height="110" as="geometry" />
        </mxCell>
        <mxCell id="_gMm7Ez1-7yfdWrX_Ej3-61" value="" style="endArrow=open;endFill=1;endSize=12;html=1;rounded=0;" edge="1" parent="_gMm7Ez1-7yfdWrX_Ej3-59">
          <mxGeometry width="160" relative="1" as="geometry">
            <mxPoint x="70" y="100" as="sourcePoint" />
            <mxPoint x="220" y="105" as="targetPoint" />
          </mxGeometry>
        </mxCell>
        <mxCell id="_gMm7Ez1-7yfdWrX_Ej3-62" value="请求DMA" style="edgeLabel;html=1;align=center;verticalAlign=middle;resizable=0;points=[];" vertex="1" connectable="0" parent="_gMm7Ez1-7yfdWrX_Ej3-61">
          <mxGeometry x="-0.2667" relative="1" as="geometry">
            <mxPoint as="offset" />
          </mxGeometry>
        </mxCell>
        <mxCell id="_gMm7Ez1-7yfdWrX_Ej3-45" value="复制数据" style="rounded=1;dashed=0;point=[];connectable=0;" vertex="1" parent="_gMm7Ez1-7yfdWrX_Ej3-59">
          <mxGeometry x="30" y="281" width="40" height="80" as="geometry" />
        </mxCell>
        <mxCell id="_gMm7Ez1-7yfdWrX_Ej3-46" value="" style="endArrow=classic;html=1;rounded=0;edgeStyle=orthogonalEdgeStyle;" edge="1" parent="_gMm7Ez1-7yfdWrX_Ej3-59">
          <mxGeometry width="50" height="50" relative="1" as="geometry">
            <mxPoint x="70" y="306" as="sourcePoint" />
            <mxPoint x="70" y="336" as="targetPoint" />
            <Array as="points">
              <mxPoint x="140" y="306" />
              <mxPoint x="140" y="336" />
            </Array>
          </mxGeometry>
        </mxCell>
        <mxCell id="_gMm7Ez1-7yfdWrX_Ej3-47" value="复制内核缓冲&lt;br&gt;到用户缓冲" style="edgeLabel;html=1;align=center;verticalAlign=middle;resizable=0;points=[];" vertex="1" connectable="0" parent="_gMm7Ez1-7yfdWrX_Ej3-46">
          <mxGeometry x="-0.3569" y="-1" relative="1" as="geometry">
            <mxPoint x="25" y="9" as="offset" />
          </mxGeometry>
        </mxCell>
        <mxCell id="_gMm7Ez1-7yfdWrX_Ej3-63" value="返回数据" style="edgeLabel;html=1;align=center;verticalAlign=middle;resizable=0;points=[];" vertex="1" connectable="0" parent="1">
          <mxGeometry x="1066" y="475" as="geometry" />
        </mxCell>
        <mxCell id="_gMm7Ez1-7yfdWrX_Ej3-64" value="" style="endArrow=classic;html=1;rounded=0;" edge="1" parent="1">
          <mxGeometry width="50" height="50" relative="1" as="geometry">
            <mxPoint x="1160" y="390" as="sourcePoint" />
            <mxPoint x="1010" y="390" as="targetPoint" />
            <Array as="points">
              <mxPoint x="1070" y="390" />
            </Array>
          </mxGeometry>
        </mxCell>
        <mxCell id="_gMm7Ez1-7yfdWrX_Ej3-65" value="通知CPU" style="edgeLabel;html=1;align=center;verticalAlign=middle;resizable=0;points=[];" vertex="1" connectable="0" parent="_gMm7Ez1-7yfdWrX_Ej3-64">
          <mxGeometry x="0.3042" y="4" relative="1" as="geometry">
            <mxPoint x="8" y="-14" as="offset" />
          </mxGeometry>
        </mxCell>
        <mxCell id="_gMm7Ez1-7yfdWrX_Ej3-66" value="" style="endArrow=classic;html=1;rounded=0;" edge="1" parent="1">
          <mxGeometry width="50" height="50" relative="1" as="geometry">
            <mxPoint x="980" y="460" as="sourcePoint" />
            <mxPoint x="850" y="460" as="targetPoint" />
            <Array as="points">
              <mxPoint x="890" y="460" />
            </Array>
          </mxGeometry>
        </mxCell>
        <mxCell id="_gMm7Ez1-7yfdWrX_Ej3-67" value="回调用户进程" style="edgeLabel;html=1;align=center;verticalAlign=middle;resizable=0;points=[];" vertex="1" connectable="0" parent="_gMm7Ez1-7yfdWrX_Ej3-66">
          <mxGeometry x="0.3042" y="4" relative="1" as="geometry">
            <mxPoint x="15" y="2" as="offset" />
          </mxGeometry>
        </mxCell>
        <mxCell id="_gMm7Ez1-7yfdWrX_Ej3-98" value="用户进程" style="shape=umlLifeline;perimeter=lifelinePerimeter;whiteSpace=wrap;html=1;container=1;collapsible=0;recursiveResize=0;outlineConnect=0;" vertex="1" parent="1">
          <mxGeometry x="420" y="680" width="100" height="360" as="geometry" />
        </mxCell>
        <mxCell id="_gMm7Ez1-7yfdWrX_Ej3-99" value="read" style="rounded=1;dashed=0;point=[];connectable=0;" vertex="1" parent="_gMm7Ez1-7yfdWrX_Ej3-98">
          <mxGeometry x="30" y="60" width="40" height="240" as="geometry" />
        </mxCell>
        <mxCell id="_gMm7Ez1-7yfdWrX_Ej3-100" value="" style="endArrow=open;endFill=1;endSize=12;html=1;rounded=0;" edge="1" parent="_gMm7Ez1-7yfdWrX_Ej3-98">
          <mxGeometry width="160" relative="1" as="geometry">
            <mxPoint x="70" y="100" as="sourcePoint" />
            <mxPoint x="230" y="100" as="targetPoint" />
          </mxGeometry>
        </mxCell>
        <mxCell id="_gMm7Ez1-7yfdWrX_Ej3-101" value="发起异步io" style="edgeLabel;html=1;align=center;verticalAlign=middle;resizable=0;points=[];" vertex="1" connectable="0" parent="_gMm7Ez1-7yfdWrX_Ej3-100">
          <mxGeometry x="-0.2667" relative="1" as="geometry">
            <mxPoint as="offset" />
          </mxGeometry>
        </mxCell>
        <mxCell id="_gMm7Ez1-7yfdWrX_Ej3-102" value="CPU" style="shape=umlLifeline;perimeter=lifelinePerimeter;whiteSpace=wrap;html=1;container=1;collapsible=0;recursiveResize=0;outlineConnect=0;" vertex="1" parent="1">
          <mxGeometry x="620" y="680" width="100" height="360" as="geometry" />
        </mxCell>
        <mxCell id="_gMm7Ez1-7yfdWrX_Ej3-103" value="请求磁盘" style="rounded=1;dashed=0;point=[];connectable=0;" vertex="1" parent="_gMm7Ez1-7yfdWrX_Ej3-102">
          <mxGeometry x="30" y="60" width="40" height="130" as="geometry" />
        </mxCell>
        <mxCell id="_gMm7Ez1-7yfdWrX_Ej3-104" value="发送中断指令给cpu" style="endArrow=classic;html=1;rounded=0;" edge="1" parent="_gMm7Ez1-7yfdWrX_Ej3-102">
          <mxGeometry width="50" height="50" relative="1" as="geometry">
            <mxPoint x="209" y="150" as="sourcePoint" />
            <mxPoint x="79" y="150" as="targetPoint" />
            <Array as="points">
              <mxPoint x="159" y="150" />
              <mxPoint x="130" y="150" />
            </Array>
          </mxGeometry>
        </mxCell>
        <mxCell id="_gMm7Ez1-7yfdWrX_Ej3-106" value="复制数据" style="rounded=1;dashed=0;point=[];connectable=0;" vertex="1" parent="_gMm7Ez1-7yfdWrX_Ej3-102">
          <mxGeometry x="27" y="220" width="40" height="80" as="geometry" />
        </mxCell>
        <mxCell id="_gMm7Ez1-7yfdWrX_Ej3-107" value="" style="endArrow=classic;html=1;rounded=0;edgeStyle=orthogonalEdgeStyle;" edge="1" parent="_gMm7Ez1-7yfdWrX_Ej3-102">
          <mxGeometry width="50" height="50" relative="1" as="geometry">
            <mxPoint x="67" y="245" as="sourcePoint" />
            <mxPoint x="67" y="275" as="targetPoint" />
            <Array as="points">
              <mxPoint x="137" y="245" />
              <mxPoint x="137" y="275" />
            </Array>
          </mxGeometry>
        </mxCell>
        <mxCell id="_gMm7Ez1-7yfdWrX_Ej3-108" value="复制内核缓冲&lt;br&gt;到磁盘缓冲" style="edgeLabel;html=1;align=center;verticalAlign=middle;resizable=0;points=[];" vertex="1" connectable="0" parent="_gMm7Ez1-7yfdWrX_Ej3-107">
          <mxGeometry x="-0.3569" y="-1" relative="1" as="geometry">
            <mxPoint x="25" y="9" as="offset" />
          </mxGeometry>
        </mxCell>
        <mxCell id="_gMm7Ez1-7yfdWrX_Ej3-109" value="磁盘控制器" style="shape=umlLifeline;perimeter=lifelinePerimeter;whiteSpace=wrap;html=1;container=1;collapsible=0;recursiveResize=0;outlineConnect=0;" vertex="1" parent="1">
          <mxGeometry x="810" y="680" width="100" height="360" as="geometry" />
        </mxCell>
        <mxCell id="_gMm7Ez1-7yfdWrX_Ej3-110" value="" style="endArrow=open;endFill=1;endSize=12;html=1;rounded=0;" edge="1" parent="_gMm7Ez1-7yfdWrX_Ej3-109">
          <mxGeometry width="160" relative="1" as="geometry">
            <mxPoint x="-120" y="100" as="sourcePoint" />
            <mxPoint x="30" y="100" as="targetPoint" />
          </mxGeometry>
        </mxCell>
        <mxCell id="_gMm7Ez1-7yfdWrX_Ej3-111" value="通知磁盘" style="edgeLabel;html=1;align=center;verticalAlign=middle;resizable=0;points=[];" vertex="1" connectable="0" parent="_gMm7Ez1-7yfdWrX_Ej3-110">
          <mxGeometry x="-0.2667" relative="1" as="geometry">
            <mxPoint as="offset" />
          </mxGeometry>
        </mxCell>
        <mxCell id="_gMm7Ez1-7yfdWrX_Ej3-112" value="read" style="rounded=1;dashed=0;point=[];connectable=0;" vertex="1" parent="_gMm7Ez1-7yfdWrX_Ej3-109">
          <mxGeometry x="30" y="90" width="40" height="90" as="geometry" />
        </mxCell>
        <mxCell id="_gMm7Ez1-7yfdWrX_Ej3-113" value="" style="endArrow=classic;html=1;rounded=0;edgeStyle=orthogonalEdgeStyle;" edge="1" parent="_gMm7Ez1-7yfdWrX_Ej3-109">
          <mxGeometry width="50" height="50" relative="1" as="geometry">
            <mxPoint x="70" y="100" as="sourcePoint" />
            <mxPoint x="70" y="130" as="targetPoint" />
            <Array as="points">
              <mxPoint x="140" y="100" />
              <mxPoint x="140" y="130" />
            </Array>
          </mxGeometry>
        </mxCell>
        <mxCell id="_gMm7Ez1-7yfdWrX_Ej3-114" value="读取磁盘数据&lt;br&gt;到磁盘缓冲区" style="edgeLabel;html=1;align=center;verticalAlign=middle;resizable=0;points=[];" vertex="1" connectable="0" parent="_gMm7Ez1-7yfdWrX_Ej3-113">
          <mxGeometry x="-0.3569" y="-1" relative="1" as="geometry">
            <mxPoint x="25" y="9" as="offset" />
          </mxGeometry>
        </mxCell>
        <mxCell id="_gMm7Ez1-7yfdWrX_Ej3-117" value="" style="endArrow=classic;html=1;rounded=0;" edge="1" parent="1">
          <mxGeometry width="50" height="50" relative="1" as="geometry">
            <mxPoint x="647" y="970" as="sourcePoint" />
            <mxPoint x="487" y="970" as="targetPoint" />
            <Array as="points">
              <mxPoint x="557" y="970" />
            </Array>
          </mxGeometry>
        </mxCell>
        <mxCell id="_gMm7Ez1-7yfdWrX_Ej3-118" value="通知读取成功" style="edgeLabel;html=1;align=center;verticalAlign=middle;resizable=0;points=[];" vertex="1" connectable="0" parent="_gMm7Ez1-7yfdWrX_Ej3-117">
          <mxGeometry x="0.3042" y="4" relative="1" as="geometry">
            <mxPoint as="offset" />
          </mxGeometry>
        </mxCell>
        <mxCell id="_gMm7Ez1-7yfdWrX_Ej3-119" value="" style="endArrow=classic;html=1;rounded=0;" edge="1" parent="1">
          <mxGeometry width="50" height="50" relative="1" as="geometry">
            <mxPoint x="650" y="810" as="sourcePoint" />
            <mxPoint x="490" y="810" as="targetPoint" />
            <Array as="points">
              <mxPoint x="560" y="810" />
            </Array>
          </mxGeometry>
        </mxCell>
        <mxCell id="_gMm7Ez1-7yfdWrX_Ej3-120" value="响应" style="edgeLabel;html=1;align=center;verticalAlign=middle;resizable=0;points=[];" vertex="1" connectable="0" parent="_gMm7Ez1-7yfdWrX_Ej3-119">
          <mxGeometry x="0.3042" y="4" relative="1" as="geometry">
            <mxPoint as="offset" />
          </mxGeometry>
        </mxCell>
        <mxCell id="_gMm7Ez1-7yfdWrX_Ej3-121" value="大文件传输：异步io+ 直接io" style="text;strokeColor=none;fillColor=none;html=1;fontSize=24;fontStyle=1;verticalAlign=middle;align=center;" vertex="1" parent="1">
          <mxGeometry x="640" y="600" width="100" height="40" as="geometry" />
        </mxCell>
        <mxCell id="_gMm7Ez1-7yfdWrX_Ej3-122" value="最初的io流程" style="text;strokeColor=none;fillColor=none;html=1;fontSize=24;fontStyle=1;verticalAlign=middle;align=center;" vertex="1" parent="1">
          <mxGeometry x="230" y="30" width="100" height="40" as="geometry" />
        </mxCell>
        <mxCell id="_gMm7Ez1-7yfdWrX_Ej3-123" value="使用DMA的io流程" style="text;strokeColor=none;fillColor=none;html=1;fontSize=24;fontStyle=1;verticalAlign=middle;align=center;" vertex="1" parent="1">
          <mxGeometry x="1016" y="20" width="100" height="40" as="geometry" />
        </mxCell>
      </root>
    </mxGraphModel>
  </diagram>
</mxfile>
